<svg width="92" height="18" viewBox="0 0 92 18" fill="none" xmlns="http://www.w3.org/2000/svg">
<path d="M0.264205 2.45455H4.05682L8.0625 12.2273H8.23295L12.2386 2.45455H16.0312V17H13.0483V7.53267H12.9276L9.16335 16.929H7.1321L3.3679 7.49716H3.24716V17H0.264205V2.45455ZM31.9315 9.72727C31.9315 11.3134 31.6308 12.6629 31.0295 13.7756C30.4329 14.8883 29.6185 15.7382 28.5863 16.3253C27.5588 16.9077 26.4035 17.1989 25.1204 17.1989C23.8278 17.1989 22.6677 16.9053 21.6403 16.3182C20.6128 15.7311 19.8008 14.8812 19.2042 13.7685C18.6076 12.6558 18.3093 11.3087 18.3093 9.72727C18.3093 8.1411 18.6076 6.79167 19.2042 5.67898C19.8008 4.56629 20.6128 3.71875 21.6403 3.13636C22.6677 2.54924 23.8278 2.25568 25.1204 2.25568C26.4035 2.25568 27.5588 2.54924 28.5863 3.13636C29.6185 3.71875 30.4329 4.56629 31.0295 5.67898C31.6308 6.79167 31.9315 8.1411 31.9315 9.72727ZM28.8136 9.72727C28.8136 8.69981 28.6597 7.83333 28.3519 7.12784C28.0489 6.42235 27.6204 5.88731 27.0664 5.52273C26.5124 5.15814 25.8638 4.97585 25.1204 4.97585C24.377 4.97585 23.7283 5.15814 23.1744 5.52273C22.6204 5.88731 22.1895 6.42235 21.8817 7.12784C21.5787 7.83333 21.4272 8.69981 21.4272 9.72727C21.4272 10.7547 21.5787 11.6212 21.8817 12.3267C22.1895 13.0322 22.6204 13.5672 23.1744 13.9318C23.7283 14.2964 24.377 14.4787 25.1204 14.4787C25.8638 14.4787 26.5124 14.2964 27.0664 13.9318C27.6204 13.5672 28.0489 13.0322 28.3519 12.3267C28.6597 11.6212 28.8136 10.7547 28.8136 9.72727ZM34.2095 17V2.45455H40.0334C41.1035 2.45455 41.996 2.61316 42.7109 2.9304C43.4259 3.24763 43.9633 3.68797 44.3232 4.25142C44.683 4.81013 44.8629 5.45407 44.8629 6.18324C44.8629 6.75142 44.7493 7.25095 44.522 7.68182C44.2947 8.10795 43.9822 8.45833 43.5845 8.73295C43.1915 9.00284 42.7417 9.1946 42.2351 9.30824V9.45028C42.7891 9.47396 43.3075 9.63021 43.7905 9.91903C44.2782 10.2079 44.6735 10.6127 44.9766 11.1335C45.2796 11.6496 45.4311 12.2652 45.4311 12.9801C45.4311 13.7519 45.2393 14.4408 44.8558 15.0469C44.477 15.6482 43.916 16.1241 43.1726 16.4744C42.4292 16.8248 41.513 17 40.424 17H34.2095ZM37.2848 14.4858H39.7919C40.6489 14.4858 41.2739 14.3224 41.6669 13.9957C42.0599 13.6643 42.2564 13.224 42.2564 12.6747C42.2564 12.2723 42.1593 11.9171 41.9652 11.6094C41.7711 11.3016 41.4941 11.0601 41.1342 10.8849C40.7791 10.7098 40.3554 10.6222 39.8629 10.6222H37.2848V14.4858ZM37.2848 8.54119H39.5646C39.986 8.54119 40.3601 8.4678 40.6868 8.32102C41.0182 8.16951 41.2786 7.95644 41.468 7.68182C41.6622 7.4072 41.7592 7.07812 41.7592 6.6946C41.7592 6.16903 41.5722 5.74527 41.1982 5.4233C40.8288 5.10133 40.3033 4.94034 39.6214 4.94034H37.2848V8.54119ZM50.5075 2.45455V17H47.4322V2.45455H50.5075ZM53.0376 17V2.45455H56.1129V14.4645H62.3487V17H53.0376ZM64.3853 17V2.45455H74.1864V4.99006H67.4606V8.45597H73.6822V10.9915H67.4606V14.4645H74.2148V17H64.3853Z" fill="white"/>
<path d="M80.9709 0.636363L83.9751 6.35724L87.054 0.636363H91.7095L86.9688 8.81818L91.8374 17H87.2031L83.9751 11.343L80.8004 17H76.1129L80.9709 8.81818L76.2834 0.636363H80.9709Z" fill="#D25771"/>
</svg>
