<svg width="15" height="13" viewBox="0 0 15 13" fill="none" xmlns="http://www.w3.org/2000/svg">
<g clip-path="url(#clip0_21_22)">
<path d="M14.9988 1.44308C14.5812 2.0643 14.0688 2.59385 13.4617 3.03175C13.4677 3.14919 13.4707 3.28193 13.4707 3.42997C13.4707 4.25249 13.3507 5.076 13.1109 5.90052C12.8711 6.72504 12.5047 7.51425 12.0118 8.26815C11.519 9.02205 10.9319 9.68994 10.2505 10.2718C9.5692 10.8537 8.75021 11.3177 7.79356 11.6637C6.8369 12.0097 5.81163 12.1828 4.71773 12.1828C3.01052 12.1828 1.43835 11.7219 0.0012207 10.8001C0.256295 10.8285 0.500932 10.8427 0.735133 10.8427C2.16137 10.8427 3.43522 10.4034 4.5567 9.52478C3.89171 9.51259 3.29616 9.30789 2.77005 8.91066C2.24395 8.51345 1.88189 8.00588 1.68389 7.38797C1.8796 7.42525 2.07276 7.44389 2.26337 7.44389C2.53774 7.44389 2.80772 7.4081 3.07331 7.33653C2.36364 7.1944 1.77491 6.84094 1.30711 6.27615C0.839336 5.71136 0.605448 5.05949 0.605448 4.32054V4.28245C1.04105 4.52364 1.50568 4.65193 1.99935 4.66733C1.57895 4.38706 1.24563 4.02158 0.999401 3.5709C0.753156 3.12021 0.630033 2.63248 0.630033 2.10772C0.630033 1.55428 0.768717 1.03892 1.04609 0.561637C1.81784 1.5087 2.75298 2.26562 3.8515 2.8324C4.95005 3.39919 6.12857 3.71397 7.38708 3.77673C7.3334 3.55304 7.30652 3.31959 7.30642 3.07641C7.30642 2.22731 7.6069 1.50229 8.20787 0.901377C8.80884 0.300459 9.53388 0 10.383 0C11.272 0 12.0208 0.323699 12.6294 0.971098C13.3248 0.83336 13.9759 0.584227 14.5827 0.223699C14.3489 0.959456 13.8984 1.52704 13.2312 1.92646C13.8444 1.85359 14.4336 1.69246 14.9988 1.44308H14.9988Z" fill="white"/>
</g>
<defs>
<clipPath id="clip0_21_22">
<rect width="15" height="12.1827" fill="white"/>
</clipPath>
</defs>
</svg>
